<svg width="158" height="38" viewBox="0 0 158 38" fill="none" xmlns="http://www.w3.org/2000/svg">
<path d="M19 38C29.4934 38 38 29.4934 38 19C38 8.50659 29.4934 0 19 0C8.50659 0 0 8.50659 0 19C0 29.4934 8.50659 38 19 38Z" fill="#00893C"/>
<path d="M18.9999 19.1851L8 30V20.868C7.99998 20.3355 8.1063 19.8083 8.31282 19.3168C8.51934 18.8253 8.82196 18.3792 9.20322 18.0044L18.2307 9.12677C18.2944 9.06549 18.375 9.02412 18.4622 9.0078C18.5495 8.99147 18.6396 9.00091 18.7215 9.03494C18.8034 9.06896 18.8735 9.12609 18.9229 9.19923C18.9724 9.27236 18.9992 9.3583 18.9999 9.44639V19.1851Z" fill="white"/>
<path d="M28.7769 20.4244L18.9999 30L18.9999 19.1851L29.2306 9.12677C29.2944 9.06549 29.3749 9.02412 29.4621 9.0078C29.5494 8.99147 29.6396 9.00091 29.7215 9.03494C29.8034 9.06896 29.8734 9.12609 29.9229 9.19923C29.9724 9.27236 29.9991 9.3583 29.9999 9.44639V17.4761C30.0043 18.0235 29.8984 18.5664 29.6884 19.0727C29.4783 19.579 29.1685 20.0386 28.7769 20.4244Z" fill="white"/>
<path d="M25.4434 29.5564H28.7769C28.9113 29.5581 29.0446 29.5332 29.169 29.483C29.2935 29.4328 29.4065 29.3584 29.5015 29.2642C29.5965 29.1699 29.6715 29.0578 29.7221 28.9343C29.7727 28.8109 29.7978 28.6786 29.796 28.5453V25.5905L25.4434 29.5564Z" fill="white"/>
<path d="M50 27.9473L53.0834 9.99802H57.7763L61.4271 19.5677L65.0532 9.99802H69.7399L72.8234 27.9473H68.1119L66.5394 17.6247L62.2226 27.9473H60.3726L56.2901 17.6247L54.7176 27.9473H50Z" fill="#202020"/>
<path d="M74.9509 21.7355C74.9447 20.8596 75.1342 19.9931 75.5059 19.1973C75.8745 18.4183 76.4013 17.7219 77.0538 17.151C77.7465 16.5562 78.5453 16.093 79.4095 15.7848C81.3373 15.1292 83.4327 15.1292 85.3605 15.7848C86.2266 16.0771 87.0297 16.526 87.7285 17.1085C88.3919 17.6819 88.9237 18.3878 89.2887 19.1791C89.6663 20.0159 89.8556 20.9232 89.8437 21.8387C89.8559 22.7306 89.672 23.6146 89.3048 24.43C88.9376 25.2454 88.3957 25.973 87.7162 26.5629C87.0148 27.1698 86.197 27.6323 85.3111 27.923C84.3431 28.2507 83.3253 28.4129 82.3017 28.4027C81.2982 28.414 80.3005 28.2516 79.354 27.923C78.4898 27.6322 77.6946 27.1716 77.0168 26.5689C76.3615 25.9796 75.8384 25.2619 75.4812 24.4619C75.1109 23.6002 74.9301 22.671 74.9509 21.7355ZM79.5698 21.7841C79.5637 22.1722 79.6415 22.5572 79.798 22.9135C79.9404 23.2347 80.1363 23.5303 80.3777 23.7879C80.6297 24.0493 80.9342 24.2561 81.2719 24.3951C81.9775 24.6783 82.7677 24.6783 83.4734 24.3951C83.8119 24.2575 84.1167 24.0505 84.3676 23.7879C84.6257 23.529 84.8345 23.2267 84.9843 22.8953C85.1348 22.5489 85.2123 22.176 85.2123 21.7993C85.2123 21.4225 85.1348 21.0496 84.9843 20.7032C84.8345 20.3718 84.6257 20.0695 84.3676 19.8106C84.1134 19.5518 83.8094 19.3454 83.4734 19.2034C82.7677 18.9203 81.9775 18.9203 81.2719 19.2034C80.9367 19.3469 80.633 19.5532 80.3777 19.8106C80.1243 20.0687 79.9159 20.3662 79.761 20.6911C79.617 21.0373 79.5518 21.4104 79.5698 21.7841Z" fill="#202020"/>
<path d="M95.178 15.7362L98.1258 21.9966L101.123 15.7362H106.007L99.538 27.9473H96.6149L90.2446 15.7362H95.178Z" fill="#202020"/>
<path d="M110.854 22.5735C110.854 24.4315 111.74 25.3606 113.512 25.3606C113.942 25.3804 114.37 25.2846 114.749 25.0835C115.128 24.8824 115.444 24.5836 115.664 24.219H119.895C119.039 27.0082 116.906 28.4027 113.493 28.4027C112.513 28.4131 111.539 28.2549 110.614 27.9352C109.784 27.6503 109.022 27.202 108.375 26.6175C107.756 26.0422 107.266 25.345 106.938 24.5712C106.589 23.723 106.417 22.8144 106.432 21.8995C106.418 20.9631 106.581 20.0324 106.913 19.1548C107.213 18.3692 107.685 17.6582 108.295 17.0721C108.911 16.4858 109.647 16.0347 110.453 15.7484C111.374 15.4282 112.345 15.272 113.321 15.2869C114.285 15.2719 115.244 15.4282 116.151 15.7484C116.955 16.0388 117.682 16.5036 118.279 17.1085C118.876 17.7205 119.328 18.4544 119.605 19.2581C119.925 20.1822 120.082 21.1538 120.067 22.1302V22.5735H110.854ZM115.979 20.0778C115.855 19.507 115.54 18.9936 115.084 18.6205C114.607 18.272 114.029 18.0838 113.435 18.0838C112.841 18.0838 112.262 18.272 111.785 18.6205C111.341 18.9978 111.053 19.5231 110.977 20.096L115.979 20.0778Z" fill="#202020"/>
<path d="M122.145 18.9727C122.134 17.6948 122.388 16.428 122.892 15.2504C123.381 14.1085 124.099 13.0753 125.003 12.2126C125.907 11.3498 126.978 10.6751 128.152 10.2288C130.773 9.25708 133.664 9.25708 136.286 10.2288C137.481 10.6795 138.572 11.3631 139.493 12.2386C140.39 13.1017 141.101 14.1344 141.583 15.2747C142.081 16.4555 142.337 17.7215 142.337 19C142.337 20.2785 142.081 21.5445 141.583 22.7253C141.1 23.8648 140.389 24.8972 139.493 25.7614C138.57 26.6349 137.48 27.3182 136.286 27.7712C133.664 28.7429 130.773 28.7429 128.152 27.7712C126.365 27.0887 124.832 25.885 123.759 24.3213C122.685 22.7576 122.122 20.9085 122.145 19.0213V18.9727ZM127.079 18.9727C127.072 19.6533 127.211 20.3277 127.486 20.9522C127.753 21.5399 128.132 22.0717 128.602 22.5188C129.07 22.9668 129.623 23.3197 130.23 23.5572C131.496 24.0512 132.905 24.0512 134.171 23.5572C134.782 23.3184 135.341 22.9659 135.817 22.5188C136.293 22.0752 136.675 21.5426 136.94 20.9522C137.212 20.3278 137.353 19.6553 137.353 18.9757C137.353 18.2961 137.212 17.6236 136.94 16.9992C136.676 16.4066 136.294 15.8719 135.817 15.4265C134.839 14.5221 133.546 14.0203 132.204 14.0239C131.527 14.0194 130.857 14.1452 130.23 14.3943C129.624 14.6291 129.07 14.9799 128.602 15.4265C128.132 15.8758 127.753 16.4097 127.486 16.9992C127.219 17.6233 127.089 18.2957 127.104 18.9727H127.079Z" fill="#202020"/>
<path d="M144.919 15.7362H149.298V17.2846C149.769 16.662 150.393 16.1669 151.111 15.8455C151.797 15.5839 152.528 15.4581 153.263 15.4751C154.029 15.4549 154.791 15.5978 155.496 15.8941C156.108 16.1624 156.65 16.5654 157.08 17.0721C157.43 17.4688 157.679 17.9411 157.808 18.4505C157.943 19.0195 158.008 19.6027 157.999 20.1871V27.9473H153.621V21.7841C153.631 21.2931 153.588 20.8025 153.491 20.3207C153.421 19.9851 153.257 19.6757 153.016 19.4281C152.846 19.2465 152.635 19.1071 152.4 19.0213C152.149 18.9422 151.886 18.9032 151.623 18.9059C151.304 18.8778 150.984 18.92 150.684 19.0292C150.384 19.1384 150.113 19.312 149.89 19.5374C149.455 20.0636 149.235 20.7304 149.273 21.4076V27.9473H144.895L144.919 15.7362Z" fill="#202020"/>
</svg>
